<svg data-v-0dd9719b="" version="1.0" xmlns="http://www.w3.org/2000/svg" xmlns:xlink="http://www.w3.org/1999/xlink" width="100%" height="100%" viewBox="0 0 340.000000 250.000000" preserveAspectRatio="xMidYMid meet" color-interpolation-filters="sRGB" style="margin: auto;"> <rect data-v-0dd9719b="" x="0" y="0" width="100%" height="100%" fill="#0000" fill-opacity="1" class="background"></rect> <rect data-v-0dd9719b="" x="0" y="0" width="100%" height="100%" fill="url(#watermark)" fill-opacity="1" class="watermarklayer"></rect> <g data-v-0dd9719b="" fill="#fcc800" class="iconlinesvg-g iconlinesvg" transform="translate(69.18558502197266,105.17894554138184)"><g class="tp-name"><g transform="translate(0, 2.6422396137114106)"><g data-gra="path-name" fill="#fcc800" transform="scale(1)"><path d="M25.39 0L33.93 0L20.72-33.04L13.21-33.04L0 0L8.54 0L10.43-5.19L23.50-5.19ZM12.98-12.13L15.34-18.55C16.05-20.44 16.90-23.41 16.94-23.41L16.99-23.41C17.04-23.41 17.89-20.44 18.59-18.55L20.95-12.13Z" transform="translate(0, 33.69690613529104)"></path></g></g><g transform="translate(37, 2.6422396137114106)"><g data-gra="path-name" fill="#fcc800" transform="scale(1)"><path d="M11.61 0L11.61-33.04L3.68-33.04L3.68 0Z" transform="translate(-3.6811746198217095, 33.69690613529104)"></path></g></g><g transform="translate(48, 2.6422396137114106)"><g data-gra="path-name" fill="#fcc800" transform="scale(1)"><path d="M3.68-19.96L3.68-13.50L25.06-13.50L25.06-19.96Z" transform="translate(-3.6811746198217103, 33.69690613529104)"></path></g></g><g transform="translate(73, 2.6422396137114106)"><g data-gra="path-name" fill="#fcc800" transform="scale(1)"><path d="M27.80-2.69C27.80-2.64 27.75-2.17 27.75 0L34.55 0L34.55-18.69L19.11-18.69L19.11-12.32L27.80-12.32L27.80-12.27C26.85-9.82 24.54-7.08 19.26-7.08C13.83-7.08 9.91-10.71 9.91-16.52C9.91-21.95 13.31-25.86 18.78-25.86C21.38-25.86 24.16-24.68 25.72-22.79L33.79-24.92C30.82-30.30 25.20-33.70 18.78-33.70C9.30-33.70 1.65-26.48 1.65-16.52C1.65-6.56 9.30 0.66 18.78 0.66C22.04 0.66 25.82-0.61 27.75-2.69Z" transform="translate(-1.6518091242789723, 33.69690613529104)"></path></g></g><g transform="translate(109, 0)"><g><g class="imagesvg"><g><rect fill="#fcc800" fill-opacity="0" stroke-width="2" x="0" y="0" width="63.35641504474847" height="39.64210901242545" class="image-rect"></rect> <svg x="0" y="0" width="63.35641504474847" height="39.64210901242545" filtersec="colorsb5407824402" class="image-svg-svg primary" style="overflow: visible;"><svg xmlns="http://www.w3.org/2000/svg" viewBox="0 -0.017110824584960938 2324.300048828125 1454.317138671875"><path d="M812.6 561.9h1420c50.6 0 91.7-41 91.7-91.7 0-50.6-41-91.7-91.7-91.7h-1420c-50.6 0-91.7 41-91.7 91.7 0 50.6 41 91.7 91.7 91.7z" fill="#fcc800"></path><path d="M1101 1112.3h930c50.6 0 91.7-41 91.7-91.7s-41-91.7-91.7-91.7h-930c-50.6 0-91.7 41-91.7 91.7s41.1 91.7 91.7 91.7z" fill="#e60012"></path><path d="M968.4 829.3h1166.5c50.6 0 91.7-41 91.7-91.7 0-50.6-41-91.7-91.7-91.7H968.4c-50.6 0-91.7 41-91.7 91.7 0 50.6 41 91.7 91.7 91.7z" fill="#f39800"></path><path d="M797.1 560.6l1325.5 266.7c49.9 8.5 97.3-25 105.8-74.9 8.5-49.9-25-97.3-74.9-105.8L828 379.9c-49.9-8.5-97.3 25-105.8 74.9-8.5 49.9 25 97.2 74.9 105.8z" fill="#fed400"></path><path d="M953.4 828l1067.4 282.3c49.9 8.5 97.3-25 105.8-74.9 8.5-49.9-25-97.3-74.9-105.8L984.3 647.3c-49.9-8.5-97.3 25-105.8 74.9-8.5 49.9 25 97.2 74.9 105.8z" fill="#f39800"></path><path d="M91.7 183.3h583.6c50.6 0 91.7-41 91.7-91.7S725.8 0 675.2 0H91.7C41 0 0 41 0 91.7s41 91.6 91.7 91.6z" fill="#000000"></path><path d="M614.3 152l109.5 127.9c33.3 38.1 91.2 42 129.3 8.6 38.1-33.3 42-91.2 8.6-129.3L752.3 31.3C719-6.8 661.1-10.7 623 22.7c-38.1 33.3-42 91.2-8.7 129.3z" fill="#000000"></path><circle cx="1319.1" cy="1307.6" r="146.7"></circle><circle cx="1828.6" cy="1307.6" r="146.7"></circle></svg></svg> <!----></g></g></g></g><g transform="translate(176, 2.6422396137114106)"><g data-gra="path-name" fill="#fcc800" transform="scale(1)"><path d="M3.68-33.04L3.68 0L11.61 0L11.61-10.38L16.28-10.38C24.40-10.38 29.31-14.63 29.31-21.71C29.31-28.79 24.40-33.04 16.28-33.04ZM11.61-17.79L11.61-25.63L16.14-25.63C19.21-25.63 21.05-24.16 21.05-21.71C21.05-19.26 19.21-17.79 16.14-17.79Z" transform="translate(-3.68117461982171, 33.69690613529104)"></path></g></g></g> <!----></g><defs v-gra="od"></defs></svg>